HIERARCHY
ROOT Hips
{
	OFFSET -0.001795 -0.223333 0.028219
	CHANNELS 6 Xposition Yposition Zposition Zrotation Yrotation Xrotation 
	JOINT LeftUpLeg
	{
		OFFSET 0.069520 -0.091406 -0.006815
		CHANNELS 3 Zrotation Yrotation Xrotation
		JOINT LeftLeg
		{
			OFFSET 0.034277 -0.375199 -0.004496
			CHANNELS 3 Zrotation Yrotation Xrotation
			JOINT LeftFoot
			{
				OFFSET -0.013596 -0.397961 -0.043693
				CHANNELS 3 Zrotation Yrotation Xrotation
				JOINT LeftToe
				{
					OFFSET 0.026358 -0.055791 0.119288
					CHANNELS 3 Zrotation Yrotation Xrotation
					End Site
					{
						OFFSET 0.000000 0.000000 0.000000
					}
				}
			}
		}
	}
	JOINT RightUpLeg
	{
		OFFSET -0.067670 -0.090522 -0.004320
		CHANNELS 3 Zrotation Yrotation Xrotation
		JOINT RightLeg
		{
			OFFSET -0.038290 -0.382569 -0.008850
			CHANNELS 3 Zrotation Yrotation Xrotation
			JOINT RightFoot
			{
				OFFSET 0.015774 -0.398415 -0.042312
				CHANNELS 3 Zrotation Yrotation Xrotation
				JOINT RightToe
				{
					OFFSET -0.025372 -0.048144 0.123348
					CHANNELS 3 Zrotation Yrotation Xrotation
					End Site
					{
						OFFSET 0.000000 0.000000 0.000000
					}
				}
			}
		}
	}
	JOINT Spine
	{
		OFFSET -0.002533 0.108963 -0.026696
		CHANNELS 3 Zrotation Yrotation Xrotation
		JOINT Spine1
		{
			OFFSET 0.005487 0.135180 0.001092
			CHANNELS 3 Zrotation Yrotation Xrotation
			JOINT Spine2
			{
				OFFSET 0.001457 0.052922 0.025425
				CHANNELS 3 Zrotation Yrotation Xrotation
				JOINT Neck
				{
					OFFSET -0.002778 0.213870 -0.042857
					CHANNELS 3 Zrotation Yrotation Xrotation
					JOINT Head
					{
						OFFSET 0.005152 0.064970 0.051349
						CHANNELS 3 Zrotation Yrotation Xrotation
						End Site
						{
							OFFSET 0.000000 0.000000 0.000000
						}
					}
				}
				JOINT LeftShoulder
				{
					OFFSET 0.078845 0.121749 -0.034090
					CHANNELS 3 Zrotation Yrotation Xrotation
					JOINT LeftArm
					{
						OFFSET 0.090977 0.030469 -0.008868
						CHANNELS 3 Zrotation Yrotation Xrotation
						JOINT LeftForeArm
						{
							OFFSET 0.259612 -0.012772 -0.027456
							CHANNELS 3 Zrotation Yrotation Xrotation
							JOINT LeftHand
							{
								OFFSET 0.249234 0.008986 -0.001171
								CHANNELS 3 Zrotation Yrotation Xrotation
								End Site
								{
									OFFSET 0.000000 0.000000 0.000000
								}
							}
						}
					}
				}
				JOINT RightShoulder
				{
					OFFSET -0.081759 0.118833 -0.038615
					CHANNELS 3 Zrotation Yrotation Xrotation
					JOINT RightArm
					{
						OFFSET -0.096012 0.032551 -0.009143
						CHANNELS 3 Zrotation Yrotation Xrotation
						JOINT RightForeArm
						{
							OFFSET -0.253742 -0.013329 -0.021401
							CHANNELS 3 Zrotation Yrotation Xrotation
							JOINT RightHand
							{
								OFFSET -0.255298 0.007772 -0.005559
								CHANNELS 3 Zrotation Yrotation Xrotation
								End Site
								{
									OFFSET 0.000000 0.000000 0.000000
								}
							}
						}
					}
				}
			}
		}
	}
}
MOTION
Frames: 16
Frame Time: 0.050000
0.000000 0.956241 0.000000 -3.069132 -5.030347 11.910277 7.004184 -0.517929 -13.625367 1.329911 -0.094725 -1.289178 11.798275 22.354554 18.020722 0.000000 0.000000 0.000000 0.539889 1.482265 -13.923410 -4.926290 0.296068 -1.982754 10.989559 7.376027 24.590983 0.000000 0.000000 0.000000 0.480763 -0.494325 11.332345 -5.402568 2.750228 4.675889 -10.262138 5.661961 -1.513783 14.463935 -11.217263 -0.822726 0.000000 0.000000 0.000000 -12.794360 -29.038957 11.551081 -40.918168 -24.821511 4.067765 0.322213 -54.732246 1.112132 0.000000 0.000000 0.000000 7.501605 17.175958 7.588802 37.288538 4.082885 -2.071170 98.762075 56.967854 69.547706 0.000000 0.000000 0.000000 
-0.000164 0.955815 0.001169 -2.727956 -6.458469 12.152316 6.443681 -0.511241 -12.270356 1.502530 -0.010902 -3.517196 12.504966 23.104498 18.941461 0.000000 0.000000 0.000000 0.361913 1.630912 -15.159535 -5.250626 0.463275 -0.235970 10.999636 7.794141 23.423582 0.000000 0.000000 0.000000 -0.145870 -0.353317 10.197592 -4.539143 2.266339 3.190560 -12.161636 5.700249 -1.820909 18.073558 -14.944019 1.261303 0.000000 0.000000 0.000000 -10.786750 -28.614344 11.083206 -41.808224 -27.318380 4.994023 5.042420 -60.783186 -1.594353 0.000000 0.000000 0.000000 9.465279 15.032940 6.834575 32.927868 -0.531722 -2.995574 104.567510 46.744782 62.761534 0.000000 0.000000 0.000000 
-0.000315 0.955053 0.003281 -2.818587 -5.954953 11.425834 7.309336 -0.427808 -11.688646 0.164230 0.087424 -3.075016 12.277126 22.922253 18.087147 0.000000 0.000000 0.000000 0.723363 1.509621 -13.980557 -5.655435 0.480297 -0.526856 10.828395 7.853164 22.990351 0.000000 0.000000 0.000000 0.968642 -0.490642 9.677425 -3.839107 1.852221 1.589364 -13.431669 5.089154 -1.361638 18.798586 -15.755716 1.622888 0.000000 0.000000 0.000000 -11.761258 -29.016342 11.429301 -38.633970 -29.801463 5.305306 5.466268 -64.091450 -1.937495 0.000000 0.000000 0.000000 7.895438 12.771222 5.545487 31.519238 -6.164232 -4.058957 115.392747 38.663825 62.399727 0.000000 0.000000 0.000000 
-0.000530 0.955174 0.005984 -2.893362 -6.589559 12.088888 7.334172 -0.415440 -11.348938 0.198314 0.132557 -4.362765 12.625652 23.287390 18.656751 0.000000 0.000000 0.000000 1.025508 1.564325 -14.240409 -5.219409 0.421988 -0.670832 9.155728 5.743900 21.552619 0.000000 0.000000 0.000000 1.362133 -0.439491 7.393280 -3.434486 1.631580 0.645052 -13.217360 2.897354 -0.527397 19.416179 -16.838486 3.444270 0.000000 0.000000 0.000000 -9.312654 -28.050254 11.196361 -39.384794 -32.824891 6.246874 9.207137 -71.634379 -4.144071 0.000000 0.000000 0.000000 6.088988 11.098519 4.324774 28.702116 -8.461292 -4.050691 122.159328 32.953946 58.845996 0.000000 0.000000 0.000000 
-0.001036 0.954287 0.009853 -2.856863 -7.020030 11.200606 7.259719 -0.380479 -10.119979 0.143419 0.130478 -4.202543 12.863576 23.622348 18.284317 0.000000 0.000000 0.000000 0.870059 1.461400 -13.453073 -5.411271 0.449540 -0.541252 10.389089 7.134349 22.555066 0.000000 0.000000 0.000000 1.423959 -0.408307 6.709188 -2.234563 1.063784 0.088153 -13.579734 1.484999 0.034043 19.585099 -16.595466 2.676337 0.000000 0.000000 0.000000 -8.171046 -26.737581 10.684336 -38.643431 -35.380761 6.886217 14.079959 -78.696235 -8.173976 0.000000 0.000000 0.000000 4.806769 9.033148 3.256216 27.945878 -11.927025 -4.559476 126.281160 29.754556 56.491075 0.000000 0.000000 0.000000 
-0.001149 0.953929 0.014358 -2.822864 -7.670963 10.712156 7.297507 -0.332464 -8.559364 -0.181764 0.195409 -5.246038 13.170974 23.987167 18.383068 0.000000 0.000000 0.000000 0.588929 1.363765 -12.751946 -5.292538 0.414052 -0.778039 11.372855 8.206689 23.249118 0.000000 0.000000 0.000000 1.616074 -0.373834 5.696991 -1.982211 0.954824 0.242793 -12.875974 0.550282 -0.159092 19.142088 -16.185757 3.002602 0.000000 0.000000 0.000000 -7.737905 -26.210880 10.603420 -39.081711 -35.988447 7.234731 8.108970 -85.325220 -3.193307 0.000000 0.000000 0.000000 3.243882 7.379608 2.498313 28.105440 -15.178909 -5.179151 128.722018 26.912696 52.605599 0.000000 0.000000 0.000000 
-0.000842 0.953614 0.018814 -2.634729 -8.107857 9.666674 7.070634 -0.294339 -7.156750 -0.377985 0.204888 -5.086792 13.359762 24.263824 18.084212 0.000000 0.000000 0.000000 0.498879 1.234877 -11.692115 -5.525101 0.464369 -0.436784 11.569732 8.422250 23.237862 0.000000 0.000000 0.000000 2.338486 -0.363903 4.507505 -1.652404 0.801030 0.102738 -12.852530 -0.051571 0.702229 19.021651 -15.827829 2.159032 0.000000 0.000000 0.000000 -7.793608 -24.616255 10.032637 -39.475438 -36.633099 7.502902 -72.178746 -87.294093 74.597091 0.000000 0.000000 0.000000 2.807747 5.618183 1.788492 27.028629 -16.737453 -5.283280 129.980668 26.943626 53.186112 0.000000 0.000000 0.000000 
0.000053 0.953394 0.022220 -2.580809 -9.206368 9.097363 6.744402 -0.264703 -6.381213 -0.280739 0.179499 -4.582653 13.988890 25.050788 18.161300 0.000000 0.000000 0.000000 0.096207 1.149214 -11.073955 -5.413433 0.471538 -0.162057 12.536691 10.091035 22.814773 0.000000 0.000000 0.000000 3.004972 -0.329878 3.292017 -1.674286 0.834328 0.787041 -12.366980 0.008498 0.585618 18.498416 -15.088775 1.346221 0.000000 0.000000 0.000000 -8.604437 -23.725517 9.848553 -40.705369 -35.833682 7.525837 -94.265340 -83.982595 93.506072 0.000000 0.000000 0.000000 2.036502 4.596945 1.426903 27.224118 -17.270834 -5.444882 129.882909 26.915912 52.459593 0.000000 0.000000 0.000000 
0.001002 0.953540 0.024272 -2.417143 -9.825409 8.488269 6.302927 -0.237764 -5.280025 -0.099715 0.178872 -4.964465 14.269042 25.376010 18.366712 0.000000 0.000000 0.000000 -0.201087 1.049227 -10.279078 -5.253424 0.445371 -0.255252 12.553480 10.216383 22.453842 0.000000 0.000000 0.000000 3.611823 -0.299773 2.450539 -1.642889 0.830419 1.023934 -12.253063 0.123527 0.916658 18.150946 -14.643209 0.713386 0.000000 0.000000 0.000000 -9.148013 -22.901028 9.595119 -41.994044 -35.670126 7.751385 -79.179350 -79.526884 74.147514 0.000000 0.000000 0.000000 2.135561 3.947601 1.172395 26.580692 -16.813401 -5.239472 127.883231 26.936266 50.142227 0.000000 0.000000 0.000000 
0.001685 0.953485 0.025151 -2.291119 -10.184156 7.966360 6.095905 -0.213074 -4.620149 -0.151307 0.182668 -4.951230 14.433243 25.588956 18.367239 0.000000 0.000000 0.000000 -0.320088 0.976403 -9.655056 -5.292177 0.454308 -0.183082 12.386710 10.309921 21.779673 0.000000 0.000000 0.000000 4.170263 -0.267843 1.768272 -1.300178 0.673399 1.180019 -12.247378 0.089087 1.205162 17.810851 -14.187996 0.042610 0.000000 0.000000 0.000000 -9.462019 -22.452701 9.478562 -42.727892 -34.664663 7.508764 -74.394803 -75.028629 65.374506 0.000000 0.000000 0.000000 2.348029 3.747905 1.071421 25.586442 -16.066455 -4.894610 125.653669 27.363534 48.492001 0.000000 0.000000 0.000000 
0.002142 0.953616 0.025262 -2.167653 -10.711311 7.779456 5.660053 -0.211155 -4.314941 0.225256 0.152766 -4.987464 14.718911 25.901759 18.669505 0.000000 0.000000 0.000000 -0.587098 0.940192 -9.380216 -5.507698 0.469169 -0.201656 13.115344 11.837567 21.294839 0.000000 0.000000 0.000000 4.431033 -0.215111 1.026063 -1.072692 0.583353 1.678384 -11.923947 0.032238 1.210007 17.192347 -13.988824 1.068398 0.000000 0.000000 0.000000 -8.937473 -22.602611 9.522586 -42.231297 -34.567405 7.363193 -70.261603 -71.255599 58.274819 0.000000 0.000000 0.000000 1.844607 3.576631 1.038468 24.432060 -15.499962 -4.542984 123.328974 26.894097 45.148307 0.000000 0.000000 0.000000 
0.002420 0.953916 0.025108 -2.240129 -10.991937 7.779039 6.000922 -0.190820 -4.301733 -0.316268 0.195157 -4.909960 14.873271 26.079835 18.761761 0.000000 0.000000 0.000000 -0.618149 0.940390 -9.382063 -5.828300 0.508661 -0.074728 13.983598 13.440212 21.159892 0.000000 0.000000 0.000000 4.802592 -0.169158 0.360786 -0.653784 0.396671 2.149664 -11.913356 -0.434840 0.913938 16.315426 -13.791788 3.051992 0.000000 0.000000 0.000000 -8.442011 -22.251633 9.360844 -41.039580 -34.367310 7.042168 -76.303062 -68.276966 61.024965 0.000000 0.000000 0.000000 0.513894 2.868116 0.903177 23.544034 -14.195453 -4.138406 122.778427 27.469879 45.184102 0.000000 0.000000 0.000000 
0.002641 0.954537 0.024798 -2.083581 -11.153807 7.983009 5.664980 -0.219330 -4.661552 -0.066886 0.166595 -4.723714 14.970281 26.141600 19.064593 0.000000 0.000000 0.000000 -0.812348 0.979714 -9.781277 -6.161384 0.569895 0.245595 14.539777 14.498424 21.080634 0.000000 0.000000 0.000000 4.888957 -0.123290 -0.216165 -0.284205 0.199575 1.302985 -11.801903 -0.653015 1.741911 15.617553 -13.661363 4.519726 0.000000 0.000000 0.000000 -7.576173 -22.261296 9.306081 -39.462680 -34.810351 6.784136 -87.571280 -66.238305 69.554177 0.000000 0.000000 0.000000 -1.749709 1.767530 0.786113 22.661830 -13.443596 -3.886721 124.729055 27.664635 46.754413 0.000000 0.000000 0.000000 
0.002911 0.955536 0.024541 -2.042551 -11.299267 8.229361 5.635771 -0.234676 -5.018298 -0.140813 0.167585 -4.583090 15.046199 26.167024 19.396190 0.000000 0.000000 0.000000 -0.711824 1.013370 -10.063482 -6.443288 0.599129 0.275962 14.554651 14.427214 21.167717 0.000000 0.000000 0.000000 5.128353 -0.071796 -0.869562 -0.054529 0.103625 1.825040 -11.462637 -1.826491 0.867232 14.253803 -13.117268 7.737145 0.000000 0.000000 0.000000 -7.307824 -21.466403 9.069655 -37.448492 -35.132008 6.516596 -100.839360 -64.372428 81.079252 0.000000 0.000000 0.000000 -4.346655 0.783874 0.850767 22.430813 -12.617710 -3.705012 127.139773 28.875901 50.155001 0.000000 0.000000 0.000000 
0.003082 0.956412 0.024271 -1.891191 -11.489051 8.454273 5.464078 -0.253534 -5.295121 -0.169883 0.169698 -4.572194 15.133961 26.199568 19.767165 0.000000 0.000000 0.000000 -0.900589 1.067325 -10.592497 -6.480101 0.649005 0.748529 14.625211 14.579861 21.118122 0.000000 0.000000 0.000000 5.191551 -0.048077 -1.168074 0.181823 -0.025270 0.892083 -11.316250 -2.538161 1.246394 13.865172 -13.038295 9.171519 0.000000 0.000000 0.000000 -6.888010 -20.783272 8.835764 -36.695036 -36.249257 6.713126 -115.235635 -62.153815 94.986578 0.000000 0.000000 0.000000 -6.070385 -0.402950 0.816463 22.108110 -12.152683 -3.605496 131.163302 30.745449 57.079741 0.000000 0.000000 0.000000 
0.003021 0.956960 0.024090 -1.710605 -11.448464 8.544543 5.221964 -0.268586 -5.295756 -0.068347 0.171915 -4.858567 15.065546 26.067429 19.999984 0.000000 0.000000 0.000000 -1.217521 1.072809 -10.729264 -6.187148 0.624632 0.804882 14.438581 14.310163 21.058011 0.000000 0.000000 0.000000 5.148173 -0.006108 -1.629828 0.202589 -0.037665 0.743872 -10.933060 -3.730019 1.151029 13.264403 -12.853844 11.600424 0.000000 0.000000 0.000000 -5.704255 -19.617710 8.275111 -35.199063 -36.152911 6.377957 -130.655623 -59.459810 112.294232 0.000000 0.000000 0.000000 -7.941878 -2.283595 0.735014 22.356665 -11.943210 -3.659116 135.327743 31.728282 62.877268 0.000000 0.000000 0.000000 
